<?xml version="1.0" encoding="utf-8"?>
<!-- Generator: Adobe Illustrator 27.0.0, SVG Export Plug-In . SVG Version: 6.00 Build 0)  -->
<svg version="1.1" id="Layer_2_00000074429246690811044340000005439008976218847158_"
	 xmlns="http://www.w3.org/2000/svg" xmlns:xlink="http://www.w3.org/1999/xlink" x="0px" y="0px" viewBox="0 0 362.4 74.8"
	 style="enable-background:new 0 0 362.4 74.8;" xml:space="preserve">
<style type="text/css">
	.st0{fill:#FFFFFF;}
</style>
<g id="Layer_1-2">
	<g>
		<g>
			<path class="st0" d="M114.1,36.5c-2.2-1.1-5.1-2.1-8.8-2.8c-2.7-0.5-4.7-1.1-6.1-1.7s-2.3-1.2-2.8-1.9c-0.5-0.7-0.7-1.5-0.7-2.4
				c0-1.4,0.8-2.5,2.3-3.3c1.5-0.7,3.3-1.1,5.5-1.1c1.9,0,3.5,0.2,5,0.7c1.4,0.4,2.8,1.3,4,2.4c0.7,0.7,1.7,1.1,2.7,1.3
				c1.1,0.2,2,0,2.8-0.5c0.8-0.6,1.2-1.3,1.3-2.2s-0.3-1.7-1-2.5c-1.5-1.8-3.5-3.3-6-4.3c-2.5-1-5.4-1.5-8.7-1.5
				c-2.5,0-4.9,0.4-7.2,1.2s-4.2,2-5.7,3.7c-1.5,1.6-2.2,3.7-2.2,6.2c0,2.9,1.1,5.3,3.4,7.3c2.2,2,5.9,3.5,10.8,4.4
				c3.8,0.7,6.5,1.6,8,2.7c1.4,1.1,2.2,2.4,2.1,3.8s-0.8,2.7-2.3,3.6c-1.5,0.9-3.7,1.4-6.6,1.4c-2.3,0-4.3-0.4-6.2-1.2
				s-3.2-1.7-4-2.6c-0.7-0.7-1.5-1.2-2.5-1.3c-1-0.1-1.9,0.2-2.9,1c-0.8,0.6-1.3,1.5-1.4,2.5s0.2,1.9,0.9,2.7c1.6,1.6,3.9,3,6.8,4
				c2.9,1.1,6.1,1.6,9.6,1.6s6.4-0.5,8.8-1.6c2.3-1.1,4.1-2.5,5.3-4.4c1.2-1.8,1.8-3.9,1.8-6.1c0-2-0.5-3.7-1.4-5.2
				C117.8,38.9,116.3,37.6,114.1,36.5L114.1,36.5z"/>
			<path class="st0" d="M147,50.1h-2.5c-1.6,0-2.9-0.7-4-2s-1.6-3-1.6-5V24.9h6.3c1,0,1.9-0.3,2.5-0.9c0.6-0.6,1-1.3,1-2.2
				c0-1-0.3-1.8-1-2.4c-0.6-0.6-1.5-0.9-2.5-0.9h-6.3V7.8c0-1.1-0.4-2-1-2.7c-0.7-0.7-1.6-1-2.7-1s-2,0.3-2.7,1s-1,1.6-1,2.7v10.7
				H128c-1,0-1.9,0.3-2.5,0.9s-1,1.4-1,2.4c0,0.9,0.3,1.6,1,2.2s1.5,0.9,2.5,0.9h3.4v18.3c0,2.7,0.6,5.2,1.7,7.3
				c1.1,2.2,2.7,3.9,4.7,5.1s4.2,1.9,6.7,1.9h1.3c1.3,0,2.3-0.3,3.1-1c0.8-0.7,1.2-1.6,1.2-2.7s-0.3-2-0.9-2.7
				C148.6,50.5,147.8,50.1,147,50.1L147,50.1z"/>
			<path class="st0" d="M187.2,19.3c-2.8-1.7-6.1-2.5-9.9-2.5s-7.4,0.9-10.4,2.6c-3,1.8-5.4,4.2-7.1,7.2c-1.7,3.1-2.6,6.7-2.6,10.7
				s0.9,7.5,2.7,10.6c1.8,3.1,4.3,5.5,7.5,7.2c3.2,1.8,6.8,2.6,10.9,2.6c2.3,0,4.6-0.4,7.1-1.3s4.6-1.9,6.2-3.3
				c0.8-0.6,1.2-1.4,1.2-2.3c-0.1-0.9-0.5-1.7-1.3-2.4c-0.6-0.5-1.4-0.8-2.3-0.8c-0.9,0-1.7,0.3-2.4,0.8c-1,0.7-2.3,1.4-3.9,2
				c-1.6,0.6-3.2,0.8-4.7,0.8c-2.8,0-5.3-0.6-7.5-1.8s-3.9-2.9-5.1-5c-0.8-1.4-1.4-3-1.6-4.7h28.1c1,0,1.8-0.3,2.4-0.9s1-1.4,1-2.3
				c0-3.9-0.7-7.3-2.2-10.3C192.1,23.3,190,21,187.2,19.3L187.2,19.3z M170.1,25c2-1.2,4.4-1.9,7.2-1.9c2.5,0,4.6,0.6,6.3,1.7
				c1.7,1.1,3.1,2.7,4,4.6c0.7,1.4,1.1,2.9,1.3,4.5h-24.6c0.2-1.4,0.7-2.7,1.2-4C166.6,27.9,168.1,26.2,170.1,25L170.1,25z"/>
			<path class="st0" d="M236.1,19.4c-3.1-1.8-6.5-2.7-10.4-2.7s-7.3,0.9-10.4,2.7c-3.1,1.8-5.5,4.3-7.2,7.4s-2.7,6.6-2.7,10.5V71
				c0,1.1,0.4,2,1.1,2.7s1.6,1.1,2.7,1.1s2.1-0.4,2.7-1.1c0.7-0.7,1-1.6,1-2.7v-20c1.7,2.1,3.8,3.7,6.2,4.9c2.4,1.2,5.1,1.8,8,1.8
				c3.6,0,6.8-0.9,9.7-2.7s5.1-4.2,6.8-7.3c1.6-3.1,2.5-6.6,2.5-10.5s-0.9-7.4-2.7-10.5S239.2,21.2,236.1,19.4L236.1,19.4z
				 M237.1,44.4c-1.2,2.1-2.7,3.8-4.7,5s-4.2,1.8-6.7,1.8s-4.7-0.6-6.7-1.8c-2-1.2-3.6-2.9-4.7-5s-1.7-4.5-1.7-7.1s0.6-5,1.7-7.1
				c1.1-2.1,2.7-3.8,4.7-5s4.2-1.8,6.7-1.8s4.8,0.6,6.7,1.8s3.5,2.9,4.7,5s1.7,4.5,1.7,7.1S238.3,42.3,237.1,44.4z"/>
			<path class="st0" d="M283.2,23.8c0.5-0.1,1-0.3,1.4-0.7s0.7-0.9,0.9-1.6c0.3-1.3-0.2-2.5-1.7-3.4c-1.5-1-3.7-1.4-6.6-1.4
				s-5.7,0.7-8.1,2.1c-1.7,0.9-3.1,2.1-4.3,3.5v-1.4c0-1.2-0.3-2.2-0.9-2.8c-0.6-0.6-1.5-0.9-2.8-0.9s-2.1,0.3-2.7,1s-1,1.5-1,2.7
				v33.1c0,1.2,0.3,2.2,1,2.8c0.6,0.6,1.5,0.9,2.7,0.9s2.2-0.3,2.8-1c0.6-0.6,0.9-1.5,0.9-2.7V32.2c0-2.3,0.7-4.1,2.2-5.6
				c1.5-1.5,3.4-2.5,6-3s5.4-0.5,8.5,0.1C282,23.8,282.6,23.9,283.2,23.8L283.2,23.8z"/>
			<path class="st0" d="M285.9,48.4c-1.4,0-2.6,0.5-3.6,1.5c-1,1-1.5,2.2-1.5,3.7s0.5,2.6,1.5,3.6c1,1,2.2,1.5,3.6,1.5
				s2.6-0.5,3.6-1.5c1-1,1.5-2.2,1.5-3.6s-0.5-2.7-1.5-3.7C288.5,48.9,287.3,48.4,285.9,48.4z"/>
			<path class="st0" d="M305.8,0.7c-1.3,0-2.5,0.5-3.4,1.4S301,4.2,301,5.6s0.5,2.5,1.4,3.4s2.1,1.4,3.4,1.4s2.5-0.5,3.4-1.4
				s1.4-2.1,1.4-3.4s-0.5-2.5-1.4-3.4S307.2,0.7,305.8,0.7z"/>
			<path class="st0" d="M305.8,17c-1.1,0-2,0.4-2.7,1c-0.7,0.7-1.1,1.6-1.1,2.7v32.9c0,1.1,0.4,2,1.1,2.7c0.7,0.7,1.6,1.1,2.7,1.1
				s2-0.4,2.7-1.1s1-1.6,1-2.7V20.8c0-1.1-0.4-2-1-2.7S307,17,305.8,17L305.8,17z"/>
			<path class="st0" d="M359.8,26.6c-1.8-3.1-4.2-5.5-7.2-7.2c-3.1-1.8-6.6-2.6-10.5-2.6s-7.5,0.9-10.6,2.6
				c-3.1,1.8-5.5,4.2-7.2,7.2c-1.8,3.1-2.6,6.7-2.6,10.7s0.9,7.5,2.6,10.6c1.8,3.1,4.2,5.5,7.2,7.2s6.6,2.6,10.6,2.6
				s7.5-0.9,10.6-2.6s5.5-4.2,7.2-7.2c1.7-3.1,2.6-6.6,2.6-10.6S361.5,29.7,359.8,26.6L359.8,26.6z M353.5,44.5
				c-1.1,2.1-2.6,3.7-4.6,4.9s-4.2,1.8-6.8,1.8s-4.8-0.6-6.8-1.8c-2-1.2-3.5-2.8-4.7-4.9s-1.7-4.5-1.7-7.2s0.6-5.1,1.7-7.2
				c1.1-2.1,2.7-3.7,4.7-4.9s4.2-1.8,6.8-1.8s4.8,0.6,6.8,1.8s3.5,2.8,4.6,4.9c1.1,2.1,1.7,4.5,1.7,7.2S354.6,42.4,353.5,44.5z"/>
		</g>
		<path class="st0" d="M33.8,0.7C34.9,0.2,36.2,0,37.4,0s2.3,0.2,3.6,0.7l30.6,13.1c1.9,0.8,3.2,2.7,3.2,4.8s-1.3,4-3.2,4.9L41,36.7
			c-1.3,0.5-2.4,0.8-3.6,0.8s-2.5-0.2-3.6-0.8L3.2,23.5C1.3,22.7,0,20.8,0,18.7s1.3-4,3.2-4.9L33.8,0.7z M37.4,7
			c-0.4,0-0.7,0.1-0.9,0.2L9.7,18.7l26.9,11.5c0.2,0.1,0.4,0.2,0.9,0.2c0.3,0,0.6-0.1,0.9-0.2l26.9-11.5L38.3,7.2
			C38,7.1,37.7,7,37.4,7L37.4,7L37.4,7z M36.5,48.9c0.2,0.1,0.4,0.2,0.9,0.2c0.3,0,0.6-0.1,0.9-0.2L66,37c-0.7-1-0.8-2.3-0.2-3.5
			c0.9-1.7,3-2.4,4.7-1.6l1.3,0.7c1.8,0.9,2.9,2.8,2.9,4.8c0,2.2-1.3,4.1-3.2,4.9L41,55.3c-1.3,0.5-2.4,0.8-3.6,0.8
			s-2.5-0.2-3.6-0.8l-30.4-13c-2-0.9-3.3-2.9-3.3-5.1c0-1.8,0.9-3.4,2.3-4.5l1.5-1.1c1.6-1.1,3.8-0.8,4.9,0.8c1,1.4,0.8,3.2-0.4,4.4
			L36.5,48.9L36.5,48.9z M8.7,51.2c1,1.4,0.8,3.2-0.4,4.4l28.2,12c0.2,0.1,0.4,0.2,0.9,0.2c0.3,0,0.6-0.1,0.9-0.2L66,55.7
			c-0.7-1-0.8-2.3-0.2-3.5c0.9-1.7,3-2.4,4.7-1.6l1.3,0.7c1.8,0.9,2.9,2.8,2.9,4.8c0,2.2-1.3,4.1-3.2,4.9L41,74
			c-1.3,0.5-2.4,0.8-3.6,0.8s-2.5-0.2-3.6-0.8L3.3,61C1.3,60.2,0,58.2,0,56c0-1.8,0.9-3.4,2.3-4.5l1.5-1.1
			C5.4,49.3,7.6,49.7,8.7,51.2L8.7,51.2L8.7,51.2z"/>
	</g>
</g>
</svg>
