<?xml version="1.0" encoding="UTF-8"?><svg id="Layer_2" xmlns="http://www.w3.org/2000/svg" xmlns:xlink="http://www.w3.org/1999/xlink" viewBox="0 0 362.37 74.82"><defs><style>.cls-1{fill:url(#linear-gradient);}.cls-2{fill:#7d6cb2;}.cls-3{fill:url(#linear-gradient-8);}.cls-4{fill:url(#linear-gradient-9);}.cls-5{fill:url(#linear-gradient-3);}.cls-6{fill:url(#linear-gradient-4);}.cls-7{fill:url(#linear-gradient-2);}.cls-8{fill:url(#linear-gradient-6);}.cls-9{fill:url(#linear-gradient-7);}.cls-10{fill:url(#linear-gradient-5);}</style><linearGradient id="linear-gradient" x1="364.19" y1="37.27" x2="86.71" y2="37.27" gradientTransform="matrix(1, 0, 0, 1, 0, 0)" gradientUnits="userSpaceOnUse"><stop offset="0" stop-color="#20c997"/><stop offset="1" stop-color="#7d6cb2"/></linearGradient><linearGradient id="linear-gradient-2" x1="364.19" y1="30.83" x2="86.71" y2="30.83" xlink:href="#linear-gradient"/><linearGradient id="linear-gradient-3" x1="364.19" y1="37.27" x2="86.71" y2="37.27" xlink:href="#linear-gradient"/><linearGradient id="linear-gradient-4" x1="364.19" y1="45.78" x2="86.71" y2="45.78" xlink:href="#linear-gradient"/><linearGradient id="linear-gradient-5" x1="364.19" y1="37.05" x2="86.71" y2="37.05" xlink:href="#linear-gradient"/><linearGradient id="linear-gradient-6" x1="364.19" y1="53.55" x2="86.71" y2="53.55" xlink:href="#linear-gradient"/><linearGradient id="linear-gradient-7" x1="364.19" y1="5.56" x2="86.71" y2="5.56" xlink:href="#linear-gradient"/><linearGradient id="linear-gradient-8" x1="364.19" y1="37.27" x2="86.71" y2="37.27" xlink:href="#linear-gradient"/><linearGradient id="linear-gradient-9" x1="364.19" y1="37.27" x2="86.71" y2="37.27" xlink:href="#linear-gradient"/></defs><g id="Layer_1-2"><g><g><path class="cls-1" d="M114.14,36.49c-2.15-1.13-5.07-2.07-8.77-2.81-2.66-.54-4.69-1.1-6.07-1.67-1.38-.57-2.31-1.21-2.78-1.92-.47-.71-.7-1.52-.7-2.4,0-1.43,.75-2.52,2.26-3.26,1.5-.74,3.34-1.11,5.51-1.11,1.87,0,3.53,.22,4.96,.67,1.43,.44,2.76,1.26,4,2.44,.74,.69,1.65,1.14,2.74,1.33,1.08,.2,2.02,.03,2.81-.52,.79-.59,1.21-1.32,1.26-2.18,.05-.86-.27-1.69-.96-2.48-1.48-1.82-3.48-3.26-5.99-4.29-2.52-1.04-5.4-1.55-8.66-1.55-2.52,0-4.93,.41-7.25,1.22-2.32,.81-4.22,2.05-5.7,3.7-1.48,1.65-2.22,3.74-2.22,6.25,0,2.86,1.12,5.28,3.37,7.25,2.24,1.97,5.86,3.45,10.84,4.44,3.85,.69,6.5,1.58,7.96,2.66,1.45,1.09,2.16,2.37,2.11,3.85-.05,1.48-.83,2.69-2.33,3.63-1.51,.94-3.69,1.41-6.55,1.41-2.27,0-4.33-.41-6.18-1.22s-3.19-1.69-4.03-2.63c-.69-.74-1.52-1.17-2.48-1.29-.96-.12-1.94,.21-2.92,1-.84,.64-1.32,1.47-1.44,2.48-.12,1.01,.18,1.91,.92,2.7,1.63,1.63,3.91,2.97,6.85,4.03,2.93,1.06,6.13,1.59,9.58,1.59s6.43-.54,8.77-1.63c2.34-1.08,4.12-2.54,5.33-4.37,1.21-1.82,1.81-3.87,1.81-6.14,0-1.97-.47-3.71-1.41-5.22-.94-1.5-2.48-2.82-4.62-3.96Z"/><path class="cls-7" d="M146.96,50.11h-2.52c-1.58,0-2.91-.67-4-2-1.09-1.33-1.63-2.98-1.63-4.96V24.87h6.29c1.04,0,1.87-.3,2.52-.89,.64-.59,.96-1.33,.96-2.22,0-.99-.32-1.78-.96-2.37-.64-.59-1.48-.89-2.52-.89h-6.29V7.85c0-1.08-.35-1.97-1.04-2.66-.69-.69-1.58-1.04-2.66-1.04s-1.97,.35-2.66,1.04-1.04,1.58-1.04,2.66v10.66h-3.4c-1.04,0-1.88,.3-2.52,.89-.64,.59-.96,1.38-.96,2.37,0,.89,.32,1.63,.96,2.22,.64,.59,1.48,.89,2.52,.89h3.4v18.28c0,2.71,.57,5.16,1.7,7.33,1.13,2.17,2.69,3.88,4.66,5.14,1.97,1.26,4.19,1.89,6.66,1.89h1.33c1.28,0,2.33-.34,3.15-1.04,.81-.69,1.22-1.58,1.22-2.66s-.31-1.97-.92-2.66c-.62-.69-1.37-1.04-2.26-1.04Z"/><path class="cls-5" d="M187.22,19.29c-2.76-1.7-6.07-2.55-9.92-2.55s-7.35,.88-10.36,2.63c-3.01,1.75-5.37,4.17-7.07,7.25-1.7,3.08-2.55,6.65-2.55,10.69s.9,7.54,2.7,10.62c1.8,3.08,4.29,5.5,7.47,7.25,3.18,1.75,6.82,2.63,10.92,2.63,2.27,0,4.65-.42,7.14-1.26,2.49-.84,4.58-1.92,6.25-3.26,.84-.64,1.23-1.41,1.18-2.29-.05-.89-.49-1.7-1.33-2.44-.64-.54-1.39-.8-2.26-.78-.86,.03-1.67,.31-2.4,.85-.99,.74-2.28,1.39-3.89,1.96-1.6,.57-3.17,.85-4.7,.85-2.81,0-5.3-.62-7.47-1.85-2.17-1.23-3.87-2.91-5.11-5.03-.83-1.42-1.37-2.98-1.64-4.66h28.13c.99,0,1.8-.31,2.44-.93,.64-.62,.96-1.39,.96-2.33,0-3.9-.73-7.34-2.18-10.32-1.46-2.98-3.56-5.33-6.33-7.03Zm-17.13,5.66c2-1.23,4.4-1.85,7.21-1.85,2.47,0,4.56,.57,6.29,1.7,1.73,1.14,3.06,2.68,4,4.62,.67,1.38,1.1,2.91,1.31,4.55h-24.61c.25-1.41,.66-2.74,1.25-3.96,1.04-2.15,2.55-3.83,4.55-5.07Z"/><path class="cls-6" d="M236.13,19.43c-3.06-1.8-6.54-2.7-10.43-2.7s-7.3,.9-10.36,2.7c-3.06,1.8-5.48,4.26-7.25,7.36s-2.69,6.61-2.74,10.51v33.74c0,1.08,.36,1.99,1.07,2.7s1.62,1.07,2.7,1.07,2.05-.36,2.74-1.07c.69-.72,1.04-1.62,1.04-2.7v-19.98c1.73,2.07,3.81,3.71,6.25,4.92,2.44,1.21,5.12,1.81,8.03,1.81,3.6,0,6.83-.9,9.69-2.7,2.86-1.8,5.12-4.24,6.77-7.33,1.65-3.08,2.48-6.57,2.48-10.47s-.9-7.4-2.7-10.51c-1.8-3.11-4.23-5.56-7.29-7.36Zm1,24.94c-1.16,2.1-2.73,3.75-4.7,4.96-1.97,1.21-4.22,1.81-6.73,1.81s-4.7-.6-6.7-1.81c-2-1.21-3.56-2.86-4.7-4.96-1.14-2.1-1.7-4.45-1.7-7.07s.57-5.04,1.7-7.14c1.13-2.1,2.7-3.75,4.7-4.96,2-1.21,4.23-1.81,6.7-1.81s4.76,.6,6.73,1.81c1.97,1.21,3.54,2.86,4.7,4.96,1.16,2.1,1.74,4.48,1.74,7.14s-.58,4.97-1.74,7.07Z"/><path class="cls-10" d="M283.19,23.76c.54-.1,1.02-.33,1.44-.7,.42-.37,.7-.9,.85-1.59,.34-1.33-.21-2.48-1.67-3.44-1.46-.96-3.66-1.44-6.62-1.44s-5.67,.69-8.14,2.07c-1.67,.93-3.09,2.11-4.29,3.48v-1.41c0-1.23-.31-2.16-.92-2.78-.62-.62-1.54-.92-2.77-.92s-2.1,.32-2.74,.96-.96,1.55-.96,2.74V53.81c0,1.23,.32,2.16,.96,2.78,.64,.62,1.55,.92,2.74,.92s2.16-.32,2.77-.96c.62-.64,.92-1.55,.92-2.74v-21.61c0-2.27,.73-4.14,2.18-5.62,1.46-1.48,3.44-2.49,5.96-3.03,2.52-.54,5.35-.49,8.51,.15,.64,.15,1.23,.17,1.78,.07Z"/><path class="cls-8" d="M285.86,48.41c-1.38,0-2.58,.51-3.59,1.52-1.01,1.01-1.52,2.23-1.52,3.66s.51,2.58,1.52,3.59c1.01,1.01,2.21,1.52,3.59,1.52s2.64-.51,3.63-1.52c.99-1.01,1.48-2.21,1.48-3.59s-.49-2.65-1.48-3.66c-.99-1.01-2.2-1.52-3.63-1.52Z"/><path class="cls-9" d="M305.84,.68c-1.33,0-2.48,.48-3.44,1.44-.96,.96-1.44,2.11-1.44,3.44s.48,2.48,1.44,3.44c.96,.96,2.11,1.44,3.44,1.44s2.48-.48,3.44-1.44c.96-.96,1.44-2.11,1.44-3.44s-.48-2.48-1.44-3.44c-.96-.96-2.11-1.44-3.44-1.44Z"/><path class="cls-3" d="M305.84,17.03c-1.09,0-1.99,.35-2.7,1.04-.72,.69-1.07,1.6-1.07,2.74V53.73c0,1.08,.36,1.99,1.07,2.7,.71,.72,1.62,1.07,2.7,1.07s2.05-.36,2.74-1.07c.69-.71,1.04-1.62,1.04-2.7V20.8c0-1.13-.35-2.05-1.04-2.74-.69-.69-1.6-1.04-2.74-1.04Z"/><path class="cls-4" d="M359.75,26.61c-1.75-3.08-4.16-5.5-7.21-7.25-3.06-1.75-6.56-2.63-10.51-2.63s-7.52,.88-10.58,2.63c-3.06,1.75-5.46,4.17-7.22,7.25-1.75,3.08-2.63,6.65-2.63,10.69s.88,7.54,2.63,10.62c1.75,3.08,4.16,5.5,7.22,7.25,3.06,1.75,6.59,2.63,10.58,2.63s7.52-.88,10.58-2.63c3.06-1.75,5.45-4.17,7.18-7.25,1.73-3.08,2.59-6.62,2.59-10.62s-.88-7.61-2.63-10.69Zm-6.29,17.87c-1.11,2.07-2.65,3.7-4.62,4.88-1.97,1.18-4.24,1.78-6.81,1.78s-4.84-.59-6.81-1.78c-1.97-1.18-3.53-2.81-4.66-4.88-1.13-2.07-1.7-4.46-1.7-7.18s.57-5.12,1.7-7.21c1.13-2.1,2.69-3.74,4.66-4.92,1.97-1.18,4.24-1.78,6.81-1.78s4.83,.59,6.81,1.78,3.52,2.82,4.62,4.92c1.11,2.1,1.67,4.5,1.67,7.21s-.55,5.11-1.67,7.18Z"/></g><path class="cls-2" d="M33.78,.74c1.14-.49,2.38-.74,3.62-.74s2.35,.25,3.62,.74l30.58,13.11c1.94,.83,3.2,2.73,3.2,4.85s-1.26,4.02-3.2,4.85l-30.58,13.11c-1.27,.5-2.38,.75-3.62,.75s-2.48-.25-3.62-.75L3.2,23.55c-1.94-.83-3.2-2.73-3.2-4.85s1.26-4.02,3.2-4.85L33.78,.74Zm3.62,6.27c-.42,0-.72,.06-.86,.18L9.68,18.7l26.86,11.51c.15,.12,.44,.18,.86,.18,.29,0,.58-.06,.86-.18l26.86-11.51L38.27,7.19c-.28-.12-.57-.18-.86-.18h0Zm-.86,41.9c.15,.12,.44,.18,.86,.18,.29,0,.58-.06,.86-.18l27.78-11.91c-.67-1.01-.8-2.35-.22-3.51,.88-1.74,2.98-2.44,4.7-1.58l1.33,.67c1.81,.91,2.95,2.75,2.95,4.76,0,2.15-1.27,4.08-3.23,4.91l-30.55,13.09c-1.27,.5-2.38,.75-3.62,.75s-2.48-.25-3.62-.75L3.33,42.31C1.31,41.45,0,39.46,0,37.26,0,35.49,.86,33.82,2.3,32.79l1.5-1.08c1.58-1.13,3.77-.76,4.89,.82,.97,1.36,.83,3.17-.36,4.37l28.2,12.02Zm-27.84,2.31c.97,1.36,.83,3.17-.36,4.37l28.2,12.02c.15,.12,.44,.18,.86,.18,.29,0,.58-.06,.86-.18l27.78-11.91c-.67-1.01-.8-2.35-.22-3.51,.88-1.74,2.98-2.44,4.7-1.58l1.33,.67c1.81,.91,2.95,2.75,2.95,4.76,0,2.15-1.27,4.08-3.23,4.91l-30.55,13.09c-1.27,.5-2.38,.75-3.62,.75s-2.48-.25-3.62-.75L3.33,61.02C1.31,60.15,0,58.17,0,55.96,0,54.19,.86,52.53,2.3,51.49l1.5-1.08c1.58-1.13,3.77-.76,4.89,.82h0Z"/></g></g></svg>