<?xml version="1.0" encoding="UTF-8"?><svg id="Layer_2" xmlns="http://www.w3.org/2000/svg" xmlns:xlink="http://www.w3.org/1999/xlink" viewBox="0 0 327.31 76.19"><defs><style>.cls-1{fill:url(#linear-gradient);}.cls-2{fill:#fff;}.cls-3{fill:url(#linear-gradient-8);}.cls-4{fill:url(#linear-gradient-9);}.cls-5{fill:url(#linear-gradient-3);}.cls-6{fill:url(#linear-gradient-4);}.cls-7{fill:url(#linear-gradient-2);}.cls-8{fill:url(#linear-gradient-6);}.cls-9{fill:url(#linear-gradient-7);}.cls-10{fill:url(#linear-gradient-5);}</style><linearGradient id="linear-gradient" x1="16.77" y1="-140.96" x2="304.81" y2="-140.96" gradientTransform="translate(0 -111.36) scale(1 -1)" gradientUnits="userSpaceOnUse"><stop offset="0" stop-color="#fff"/><stop offset="1" stop-color="#e9ecef"/></linearGradient><linearGradient id="linear-gradient-2" y1="-143.13" y2="-143.13" xlink:href="#linear-gradient"/><linearGradient id="linear-gradient-3" y1="-149.58" y2="-149.58" xlink:href="#linear-gradient"/><linearGradient id="linear-gradient-4" x1="16.77" y1="-158.09" x2="304.81" y2="-158.09" xlink:href="#linear-gradient"/><linearGradient id="linear-gradient-5" x1="16.77" y1="-149.37" x2="304.81" y2="-149.37" xlink:href="#linear-gradient"/><linearGradient id="linear-gradient-6" x1="16.77" y1="-165.86" x2="304.81" y2="-165.86" xlink:href="#linear-gradient"/><linearGradient id="linear-gradient-7" x1="16.77" y1="-117.87" x2="304.81" y2="-117.87" xlink:href="#linear-gradient"/><linearGradient id="linear-gradient-8" x1="16.77" y1="-149.58" x2="304.81" y2="-149.58" xlink:href="#linear-gradient"/><linearGradient id="linear-gradient-9" x1="16.77" y1="-149.57" x2="304.81" y2="-149.57" xlink:href="#linear-gradient"/></defs><g id="Layer_2-2"><path class="cls-1" d="m64.98,25.31c-3.85-.39-6.8-1.08-8.84-2.07-2.05-.99-3.45-2.16-4.22-3.51-.76-1.36-1.15-2.78-1.15-4.26,0-2.91,1.23-5.07,3.7-6.48s5.52-2.08,9.18-2.03c2.07,0,3.87.28,5.4.85,1.53.57,2.86,1.34,4,2.33,1.13.99,2.1,2.2,2.89,3.63.54.94,1.36,1.58,2.44,1.92,1.08.35,2.1.22,3.03-.37.84-.54,1.32-1.29,1.44-2.26.12-.96-.16-1.99-.85-3.07-1.23-2.02-2.69-3.77-4.37-5.25s-3.64-2.64-5.88-3.48c-2.25-.84-4.87-1.26-7.88-1.26-3.85,0-7.34.59-10.47,1.78-3.13,1.19-5.61,2.91-7.44,5.18-1.83,2.27-2.74,5.03-2.74,8.29,0,4.44,1.75,8.17,5.25,11.17,3.5,3.01,8.31,4.81,14.43,5.4,4.69.49,8.05,1.78,10.1,3.85s3.07,4.42,3.07,7.03c0,2.07-.62,3.81-1.85,5.22-1.23,1.41-2.85,2.48-4.85,3.22s-4.18,1.11-6.55,1.11c-2.12,0-4.14-.32-6.07-.96-1.92-.64-3.56-1.48-4.92-2.52s-2.33-2.17-2.92-3.4c-.44-.94-1.1-1.64-1.96-2.11s-1.74-.6-2.63-.41c-1.23.25-2.11.81-2.63,1.7s-.53,1.85-.04,2.89c.99,2.32,2.54,4.37,4.66,6.14s4.61,3.16,7.47,4.14c2.86.99,5.87,1.48,9.03,1.48,2.66,0,5.24-.35,7.73-1.04s4.71-1.74,6.66-3.15,3.5-3.14,4.66-5.22c1.16-2.07,1.74-4.51,1.74-7.33,0-4.88-1.64-8.82-4.92-11.8-3.28-2.98-7.86-4.77-13.73-5.36h.03Z"/><path class="cls-7" d="m111.89,51.06h-2.52c-1.58,0-2.91-.67-4-2s-1.63-2.98-1.63-4.96v-18.28h6.29c1.04,0,1.88-.3,2.52-.89s.96-1.33.96-2.22c0-.99-.32-1.78-.96-2.37-.64-.59-1.48-.89-2.52-.89h-6.29v-10.66c0-1.08-.35-1.97-1.04-2.66-.69-.69-1.58-1.04-2.66-1.04s-1.97.35-2.66,1.04-1.04,1.58-1.04,2.66v10.66h-3.4c-1.04,0-1.88.3-2.52.89s-.96,1.38-.96,2.37c0,.89.32,1.63.96,2.22s1.48.89,2.52.89h3.4v18.28c0,2.71.57,5.16,1.7,7.33s2.69,3.88,4.66,5.14,4.19,1.89,6.66,1.89h1.33c1.28,0,2.33-.34,3.14-1.04.81-.69,1.22-1.58,1.22-2.66s-.31-1.97-.92-2.66c-.62-.69-1.37-1.04-2.26-1.04h.02Z"/><path class="cls-5" d="m152.15,20.24c-2.76-1.7-6.07-2.55-9.92-2.55s-7.35.88-10.36,2.63-5.37,4.17-7.07,7.25-2.55,6.65-2.55,10.69.9,7.54,2.7,10.62c1.8,3.08,4.29,5.5,7.47,7.25s6.82,2.63,10.91,2.63c2.27,0,4.65-.42,7.14-1.26s4.58-1.92,6.25-3.26c.84-.64,1.23-1.41,1.18-2.29-.05-.89-.49-1.7-1.33-2.44-.64-.54-1.39-.8-2.26-.78-.86.03-1.67.31-2.41.85-.99.74-2.28,1.39-3.88,1.96s-3.17.85-4.7.85c-2.81,0-5.3-.62-7.47-1.85s-3.87-2.91-5.11-5.03c-.83-1.42-1.37-2.98-1.64-4.66h28.13c.99,0,1.8-.31,2.44-.93s.96-1.39.96-2.33c0-3.9-.73-7.34-2.18-10.32-1.46-2.98-3.56-5.33-6.33-7.03h.03Zm-17.13,5.66c2-1.23,4.4-1.85,7.21-1.85,2.47,0,4.56.57,6.29,1.7,1.73,1.14,3.06,2.68,4,4.62.67,1.38,1.1,2.91,1.31,4.55h-24.61c.25-1.41.66-2.74,1.25-3.96,1.04-2.15,2.55-3.83,4.55-5.07h0Z"/><path class="cls-6" d="m201.06,20.39c-3.06-1.8-6.54-2.7-10.43-2.7s-7.3.9-10.36,2.7c-3.06,1.8-5.48,4.26-7.25,7.36-1.78,3.11-2.69,6.61-2.74,10.51v33.74c0,1.08.36,1.99,1.07,2.7s1.62,1.07,2.7,1.07,2.05-.36,2.74-1.07c.69-.72,1.04-1.62,1.04-2.7v-19.98c1.73,2.07,3.81,3.71,6.25,4.92,2.44,1.21,5.12,1.81,8.03,1.81,3.6,0,6.83-.9,9.69-2.7s5.12-4.24,6.77-7.33c1.65-3.08,2.48-6.57,2.48-10.47s-.9-7.4-2.7-10.51-4.23-5.56-7.29-7.36h0Zm1,24.94c-1.16,2.1-2.73,3.75-4.7,4.96s-4.22,1.81-6.73,1.81-4.7-.6-6.7-1.81c-2-1.21-3.56-2.86-4.7-4.96-1.13-2.1-1.7-4.45-1.7-7.07s.57-5.04,1.7-7.14c1.13-2.1,2.7-3.75,4.7-4.96s4.23-1.81,6.7-1.81,4.76.6,6.73,1.81,3.54,2.86,4.7,4.96,1.74,4.48,1.74,7.14-.58,4.97-1.74,7.07Z"/><path class="cls-10" d="m248.12,24.72c.54-.1,1.02-.33,1.44-.7s.7-.9.85-1.59c.34-1.33-.21-2.48-1.66-3.44-1.46-.96-3.66-1.44-6.62-1.44s-5.67.69-8.14,2.07c-1.67.93-3.09,2.11-4.29,3.48v-1.41c0-1.23-.31-2.16-.92-2.78-.62-.62-1.54-.92-2.78-.92s-2.1.32-2.74.96-.96,1.55-.96,2.74v33.08c0,1.23.32,2.16.96,2.78s1.55.92,2.74.92,2.16-.32,2.78-.96.92-1.55.92-2.74v-21.61c0-2.27.73-4.14,2.18-5.62s3.44-2.49,5.96-3.03,5.35-.49,8.51.15c.64.15,1.23.17,1.78.07h-.01Z"/><path class="cls-8" d="m250.79,49.36c-1.38,0-2.58.51-3.59,1.52s-1.52,2.23-1.52,3.66.5,2.58,1.52,3.59c1.01,1.01,2.21,1.52,3.59,1.52s2.64-.51,3.62-1.52c.99-1.01,1.48-2.21,1.48-3.59s-.49-2.65-1.48-3.66c-.99-1.01-2.2-1.52-3.62-1.52Z"/><path class="cls-9" d="m270.77,1.63c-1.33,0-2.48.48-3.44,1.44-.96.96-1.44,2.11-1.44,3.44s.48,2.48,1.44,3.44c.96.96,2.11,1.44,3.44,1.44s2.48-.48,3.44-1.44c.96-.96,1.44-2.11,1.44-3.44s-.48-2.48-1.44-3.44-2.11-1.44-3.44-1.44Z"/><path class="cls-3" d="m270.77,17.98c-1.09,0-1.99.35-2.7,1.04-.71.69-1.07,1.6-1.07,2.74v32.93c0,1.08.36,1.99,1.07,2.7.71.72,1.62,1.07,2.7,1.07s2.05-.36,2.74-1.07,1.04-1.62,1.04-2.7V21.76c0-1.13-.35-2.05-1.04-2.74s-1.6-1.04-2.74-1.04Z"/><path class="cls-4" d="m324.68,27.56c-1.75-3.08-4.16-5.5-7.21-7.25-3.06-1.75-6.56-2.63-10.51-2.63s-7.52.88-10.58,2.63c-3.06,1.75-5.46,4.17-7.21,7.25s-2.63,6.65-2.63,10.69.88,7.54,2.63,10.62,4.16,5.5,7.21,7.25c3.06,1.75,6.59,2.63,10.58,2.63s7.52-.88,10.58-2.63,5.45-4.17,7.18-7.25c1.73-3.08,2.59-6.62,2.59-10.62s-.88-7.61-2.63-10.69h0Zm-6.29,17.87c-1.11,2.07-2.65,3.7-4.62,4.88s-4.24,1.78-6.81,1.78-4.84-.59-6.81-1.78c-1.97-1.18-3.53-2.81-4.66-4.88s-1.7-4.46-1.7-7.18.57-5.12,1.7-7.21c1.13-2.1,2.69-3.74,4.66-4.92s4.24-1.78,6.81-1.78,4.83.59,6.81,1.78c1.97,1.18,3.51,2.82,4.62,4.92,1.11,2.1,1.67,4.5,1.67,7.21s-.55,5.11-1.67,7.18Z"/><path class="cls-2" d="m17.05,49.41v-16.35c5.99-1.58,10.14-6.92,10.14-13.14,0-7.5-6.1-13.6-13.6-13.6S0,12.42,0,19.92c0,6.22,4.15,11.57,10.14,13.14v16.43C4.23,51.12.14,56.45.14,62.59c0,7.5,6.1,13.6,13.6,13.6s13.6-6.1,13.6-13.6c0-6.2-4.3-11.68-10.29-13.18Zm4.21,13.18c0,4.15-3.38,7.53-7.53,7.53s-7.53-3.38-7.53-7.53,3.38-7.53,7.53-7.53,7.53,3.38,7.53,7.53Z"/></g></svg>