<?xml version="1.0" encoding="UTF-8"?><svg id="Layer_2" xmlns="http://www.w3.org/2000/svg" xmlns:xlink="http://www.w3.org/1999/xlink" viewBox="0 0 367.97 82.35"><defs><style>.cls-1{fill:url(#linear-gradient);}.cls-2{fill:url(#linear-gradient-8);}.cls-3{fill:url(#linear-gradient-9);}.cls-4{fill:url(#linear-gradient-3);}.cls-5{fill:url(#linear-gradient-4);}.cls-6{fill:url(#linear-gradient-2);}.cls-7{fill:url(#linear-gradient-6);}.cls-8{fill:url(#linear-gradient-7);}.cls-9{fill:url(#linear-gradient-5);}.cls-10{fill:url(#linear-gradient-12);}.cls-11{fill:url(#linear-gradient-10);}.cls-12{fill:url(#linear-gradient-11);}</style><linearGradient id="linear-gradient" x1="369.23" y1="36.17" x2="-.77" y2="36.17" gradientUnits="userSpaceOnUse"><stop offset="0" stop-color="#7d6cb2"/><stop offset="1" stop-color="#20c997"/></linearGradient><linearGradient id="linear-gradient-2" x1="369.23" y1="38.35" x2="-.77" y2="38.35" xlink:href="#linear-gradient"/><linearGradient id="linear-gradient-3" x1="369.23" y1="44.79" x2="-.77" y2="44.79" xlink:href="#linear-gradient"/><linearGradient id="linear-gradient-4" x1="369.23" y1="53.3" x2="-.77" y2="53.3" xlink:href="#linear-gradient"/><linearGradient id="linear-gradient-5" x1="369.23" y1="44.57" x2="-.77" y2="44.57" xlink:href="#linear-gradient"/><linearGradient id="linear-gradient-6" x1="369.23" y1="61.07" x2="-.77" y2="61.07" xlink:href="#linear-gradient"/><linearGradient id="linear-gradient-7" x1="369.23" y1="13.08" x2="-.77" y2="13.08" xlink:href="#linear-gradient"/><linearGradient id="linear-gradient-8" x1="369.23" y1="44.79" x2="-.77" y2="44.79" xlink:href="#linear-gradient"/><linearGradient id="linear-gradient-9" x1="369.23" y1="44.79" x2="-.77" y2="44.79" xlink:href="#linear-gradient"/><linearGradient id="linear-gradient-10" x1="369.23" y1="43.11" x2="-.77" y2="43.11" xlink:href="#linear-gradient"/><linearGradient id="linear-gradient-11" x1="369.23" y1="61.61" x2="-.77" y2="61.61" xlink:href="#linear-gradient"/><linearGradient id="linear-gradient-12" x1="369.23" y1="18.5" x2="-.77" y2="18.5" xlink:href="#linear-gradient"/></defs><g id="Layer_1-2"><g><path class="cls-1" d="M105.65,31.88c-3.85-.39-6.8-1.08-8.84-2.07-2.05-.99-3.45-2.16-4.22-3.51-.76-1.36-1.15-2.78-1.15-4.26,0-2.91,1.23-5.07,3.7-6.48,2.47-1.41,5.52-2.08,9.18-2.03,2.07,0,3.87,.28,5.4,.85,1.53,.57,2.86,1.34,4,2.33,1.13,.99,2.1,2.2,2.89,3.63,.54,.94,1.36,1.58,2.44,1.92,1.08,.35,2.1,.22,3.03-.37,.84-.54,1.32-1.29,1.44-2.26,.12-.96-.16-1.99-.85-3.07-1.23-2.02-2.69-3.77-4.37-5.25s-3.64-2.64-5.88-3.48c-2.25-.84-4.87-1.26-7.88-1.26-3.85,0-7.34,.59-10.47,1.78s-5.61,2.91-7.44,5.18c-1.83,2.27-2.74,5.03-2.74,8.29,0,4.44,1.75,8.17,5.25,11.17,3.5,3.01,8.31,4.81,14.43,5.4,4.69,.49,8.05,1.78,10.1,3.85,2.05,2.07,3.07,4.42,3.07,7.03,0,2.07-.62,3.81-1.85,5.22-1.23,1.41-2.85,2.48-4.85,3.22s-4.18,1.11-6.55,1.11c-2.12,0-4.14-.32-6.07-.96-1.92-.64-3.56-1.48-4.92-2.52-1.36-1.04-2.33-2.17-2.92-3.4-.44-.94-1.1-1.64-1.96-2.11-.86-.47-1.74-.6-2.63-.41-1.23,.25-2.11,.81-2.63,1.7-.52,.89-.53,1.85-.04,2.89,.99,2.32,2.54,4.37,4.66,6.14s4.61,3.16,7.47,4.14c2.86,.99,5.87,1.48,9.03,1.48,2.66,0,5.24-.35,7.73-1.04s4.71-1.74,6.66-3.15,3.5-3.14,4.66-5.22c1.16-2.07,1.74-4.51,1.74-7.33,0-4.88-1.64-8.82-4.92-11.8-3.28-2.98-7.86-4.77-13.73-5.36Z"/><path class="cls-6" d="M152.56,57.63h-2.52c-1.58,0-2.91-.67-4-2-1.09-1.33-1.63-2.98-1.63-4.96v-18.28h6.29c1.04,0,1.88-.3,2.52-.89s.96-1.33,.96-2.22c0-.99-.32-1.78-.96-2.37-.64-.59-1.48-.89-2.52-.89h-6.29V15.38c0-1.08-.35-1.97-1.04-2.66-.69-.69-1.58-1.04-2.66-1.04s-1.97,.35-2.66,1.04c-.69,.69-1.04,1.58-1.04,2.66v10.66h-3.4c-1.04,0-1.88,.3-2.52,.89-.64,.59-.96,1.38-.96,2.37,0,.89,.32,1.63,.96,2.22,.64,.59,1.48,.89,2.52,.89h3.4v18.28c0,2.71,.57,5.16,1.7,7.33s2.69,3.88,4.66,5.14,4.19,1.89,6.66,1.89h1.33c1.28,0,2.33-.34,3.14-1.04,.81-.69,1.22-1.58,1.22-2.66s-.31-1.97-.92-2.66c-.62-.69-1.37-1.04-2.26-1.04Z"/><path class="cls-4" d="M192.82,26.81c-2.76-1.7-6.07-2.55-9.92-2.55s-7.35,.88-10.36,2.63c-3.01,1.75-5.37,4.17-7.07,7.25-1.7,3.08-2.55,6.65-2.55,10.69s.9,7.54,2.7,10.62c1.8,3.08,4.29,5.5,7.47,7.25,3.18,1.75,6.82,2.63,10.91,2.63,2.27,0,4.65-.42,7.14-1.26s4.58-1.92,6.25-3.26c.84-.64,1.23-1.41,1.18-2.29-.05-.89-.49-1.7-1.33-2.44-.64-.54-1.39-.8-2.26-.78-.86,.03-1.67,.31-2.41,.85-.99,.74-2.28,1.39-3.88,1.96-1.6,.57-3.17,.85-4.7,.85-2.81,0-5.3-.62-7.47-1.85-2.17-1.23-3.87-2.91-5.11-5.03-.83-1.42-1.37-2.98-1.64-4.66h28.13c.99,0,1.8-.31,2.44-.93,.64-.62,.96-1.39,.96-2.33,0-3.9-.73-7.34-2.18-10.32-1.46-2.98-3.56-5.33-6.33-7.03Zm-17.13,5.66c2-1.23,4.4-1.85,7.21-1.85,2.47,0,4.56,.57,6.29,1.7,1.73,1.14,3.06,2.68,4,4.62,.67,1.38,1.1,2.91,1.31,4.55h-24.61c.25-1.41,.66-2.74,1.25-3.96,1.04-2.15,2.55-3.83,4.55-5.07Z"/><path class="cls-5" d="M241.73,26.96c-3.06-1.8-6.54-2.7-10.43-2.7s-7.3,.9-10.36,2.7c-3.06,1.8-5.48,4.26-7.25,7.36-1.78,3.11-2.69,6.61-2.74,10.51v33.74c0,1.08,.36,1.99,1.07,2.7,.71,.71,1.62,1.07,2.7,1.07s2.05-.36,2.74-1.07c.69-.72,1.04-1.62,1.04-2.7v-19.98c1.73,2.07,3.81,3.71,6.25,4.92,2.44,1.21,5.12,1.81,8.03,1.81,3.6,0,6.83-.9,9.69-2.7s5.12-4.24,6.77-7.33c1.65-3.08,2.48-6.57,2.48-10.47s-.9-7.4-2.7-10.51-4.23-5.56-7.29-7.36Zm1,24.94c-1.16,2.1-2.73,3.75-4.7,4.96-1.97,1.21-4.22,1.81-6.73,1.81s-4.7-.6-6.7-1.81c-2-1.21-3.56-2.86-4.7-4.96-1.13-2.1-1.7-4.45-1.7-7.07s.57-5.04,1.7-7.14c1.13-2.1,2.7-3.75,4.7-4.96,2-1.21,4.23-1.81,6.7-1.81s4.76,.6,6.73,1.81c1.97,1.21,3.54,2.86,4.7,4.96,1.16,2.1,1.74,4.48,1.74,7.14s-.58,4.97-1.74,7.07Z"/><path class="cls-9" d="M288.79,31.29c.54-.1,1.02-.33,1.44-.7,.42-.37,.7-.9,.85-1.59,.34-1.33-.21-2.48-1.66-3.44-1.46-.96-3.66-1.44-6.62-1.44s-5.67,.69-8.14,2.07c-1.67,.93-3.09,2.11-4.29,3.48v-1.41c0-1.23-.31-2.16-.92-2.78-.62-.62-1.54-.92-2.78-.92s-2.1,.32-2.74,.96c-.64,.64-.96,1.55-.96,2.74V61.33c0,1.23,.32,2.16,.96,2.78,.64,.62,1.55,.92,2.74,.92s2.16-.32,2.78-.96c.62-.64,.92-1.55,.92-2.74v-21.61c0-2.27,.73-4.14,2.18-5.62s3.44-2.49,5.96-3.03c2.52-.54,5.35-.49,8.51,.15,.64,.15,1.23,.17,1.78,.07Z"/><path class="cls-7" d="M291.46,55.93c-1.38,0-2.58,.51-3.59,1.52s-1.52,2.23-1.52,3.66,.5,2.58,1.52,3.59c1.01,1.01,2.21,1.52,3.59,1.52s2.64-.51,3.62-1.52c.99-1.01,1.48-2.21,1.48-3.59s-.49-2.65-1.48-3.66c-.99-1.01-2.2-1.52-3.62-1.52Z"/><path class="cls-8" d="M311.44,8.2c-1.33,0-2.48,.48-3.44,1.44-.96,.96-1.44,2.11-1.44,3.44s.48,2.48,1.44,3.44c.96,.96,2.11,1.44,3.44,1.44s2.48-.48,3.44-1.44c.96-.96,1.44-2.11,1.44-3.44s-.48-2.48-1.44-3.44c-.96-.96-2.11-1.44-3.44-1.44Z"/><path class="cls-2" d="M311.44,24.55c-1.09,0-1.99,.35-2.7,1.04-.71,.69-1.07,1.6-1.07,2.74V61.26c0,1.08,.36,1.99,1.07,2.7,.71,.72,1.62,1.07,2.7,1.07s2.05-.36,2.74-1.07c.69-.71,1.04-1.62,1.04-2.7V28.33c0-1.13-.35-2.05-1.04-2.74-.69-.69-1.6-1.04-2.74-1.04Z"/><path class="cls-3" d="M365.35,34.14c-1.75-3.08-4.16-5.5-7.21-7.25-3.06-1.75-6.56-2.63-10.51-2.63s-7.52,.88-10.58,2.63c-3.06,1.75-5.46,4.17-7.21,7.25-1.75,3.08-2.63,6.65-2.63,10.69s.88,7.54,2.63,10.62c1.75,3.08,4.16,5.5,7.21,7.25,3.06,1.75,6.59,2.63,10.58,2.63s7.52-.88,10.58-2.63c3.06-1.75,5.45-4.17,7.18-7.25,1.73-3.08,2.59-6.62,2.59-10.62s-.88-7.61-2.63-10.69Zm-6.29,17.87c-1.11,2.07-2.65,3.7-4.62,4.88-1.97,1.18-4.24,1.78-6.81,1.78s-4.84-.59-6.81-1.78c-1.97-1.18-3.53-2.81-4.66-4.88-1.13-2.07-1.7-4.46-1.7-7.18s.57-5.12,1.7-7.21c1.13-2.1,2.69-3.74,4.66-4.92s4.24-1.78,6.81-1.78,4.83,.59,6.81,1.78c1.97,1.18,3.51,2.82,4.62,4.92,1.11,2.1,1.67,4.5,1.67,7.21s-.55,5.11-1.67,7.18Z"/><path class="cls-11" d="M71.08,32.25l-1.31-.67c-1.71-.85-3.79-.16-4.65,1.56-.58,1.14-.45,2.47,.22,3.47l-27.48,11.78c-.27,.12-.56,.17-.85,.17-.42,0-.71-.06-.85-.17l-27.89-11.9c1.18-1.19,1.31-2.98,.35-4.32-1.11-1.56-3.28-1.92-4.84-.81l-1.49,1.07c-1.43,1.03-2.28,2.67-2.28,4.42,0,2.18,1.3,4.15,3.3,5l30.12,12.91c1.13,.49,2.36,.74,3.58,.74s2.33-.25,3.58-.74l30.22-12.95c1.94-.82,3.19-2.73,3.19-4.86,0-1.99-1.13-3.82-2.92-4.71Z"/><path class="cls-12" d="M71.08,50.75l-1.31-.67c-1.71-.85-3.79-.16-4.65,1.56-.58,1.14-.45,2.47,.22,3.47l-27.48,11.78c-.27,.12-.56,.17-.85,.17-.42,0-.71-.06-.85-.17l-27.89-11.89c1.18-1.19,1.31-2.98,.35-4.32-1.11-1.56-3.28-1.92-4.84-.81l-1.49,1.07c-1.43,1.03-2.28,2.67-2.28,4.42,0,2.18,1.3,4.15,3.3,5l30.12,12.91c1.13,.49,2.36,.74,3.58,.74s2.33-.25,3.58-.74l30.22-12.95c1.94-.82,3.19-2.73,3.19-4.86,0-2-1.13-3.82-2.92-4.71Z"/><path class="cls-10" d="M70.83,13.7L40.58,.74c-1.26-.49-2.36-.74-3.58-.74s-2.46,.25-3.58,.74L3.17,13.7c-1.92,.83-3.17,2.7-3.17,4.8s1.25,3.97,3.17,4.8l30.25,12.96c1.13,.49,2.36,.74,3.58,.74s2.33-.25,3.58-.74l30.25-12.96c1.92-.82,3.17-2.7,3.17-4.8s-1.24-3.97-3.17-4.8ZM37.85,29.89c-.27,.12-.56,.17-.85,.17-.42,0-.71-.06-.85-.17L9.58,18.5,36.15,7.11c.14-.12,.43-.17,.85-.17,.29,0,.58,.06,.85,.17l26.57,11.39-26.57,11.39Z"/></g></g></svg>